<svg width="40" height="33" viewBox="0 0 40 33" fill="none" xmlns="http://www.w3.org/2000/svg">
<path fill-rule="evenodd" clip-rule="evenodd" d="M16.822 0L11.0303 16.2882L5.40128 0H0L8.72004 23.0294H13.3079L22.0281 0H16.822Z" fill="#21201F"/>
<path fill-rule="evenodd" clip-rule="evenodd" d="M25.8688 23.9423C25.9773 25.3617 26.4387 26.3939 27.2527 27.0391C28.0666 27.6842 29.2658 28.0068 30.8505 28.0068C31.6101 28.0068 32.2507 27.9261 32.7716 27.7648C33.2925 27.6036 33.7158 27.3888 34.0415 27.1197C34.3671 26.851 34.6001 26.5341 34.7415 26.168C34.8824 25.8027 34.9531 25.405 34.9531 24.9746C34.9531 24.3728 34.7252 23.8082 34.2693 23.2811C33.8135 22.7543 32.9777 22.3728 31.7623 22.1359L28.7342 21.5876C27.5401 21.3728 26.4875 21.0931 25.5758 20.7488C24.6642 20.4051 23.899 19.9585 23.2803 19.4102C22.6617 18.8617 22.1895 18.1899 21.8639 17.394C21.5383 16.5987 21.3756 15.6521 21.3756 14.5553C21.3756 13.4585 21.5979 12.4908 22.0431 11.6521C22.4877 10.8134 23.1063 10.1148 23.899 9.55538C24.6911 8.9964 25.6409 8.57143 26.748 8.28118C27.855 7.99083 29.0704 7.8457 30.3947 7.8457C32.0879 7.8457 33.4987 8.03924 34.6275 8.42631C35.7559 8.81338 36.6676 9.32454 37.3626 9.95851C38.057 10.5932 38.5724 11.3295 38.9092 12.1682C39.2455 13.007 39.4678 13.8779 39.5767 14.7811L34.9857 15.3618C34.7467 14.0931 34.2857 13.1794 33.6019 12.6198C32.9181 12.0609 31.8812 11.7812 30.4923 11.7812C29.6672 11.7812 28.989 11.8512 28.4573 11.9908C27.9253 12.1309 27.4968 12.3134 27.1713 12.5391C26.8457 12.765 26.6177 13.0286 26.4875 13.3295C26.3573 13.6309 26.2922 13.9424 26.2922 14.265C26.2922 15.1253 26.5364 15.7705 27.0248 16.2004C27.5131 16.6309 28.3434 16.9641 29.5155 17.2004L32.7066 17.8134C35.2243 18.3083 37.0695 19.1092 38.2417 20.2165C39.4139 21.3244 40 22.9212 40 25.0068C40 26.0179 39.8097 26.9478 39.4301 27.797C39.0501 28.647 38.4859 29.3889 37.7371 30.0229C36.9881 30.6574 36.0489 31.152 34.9206 31.5067C33.7916 31.8616 32.4674 32.039 30.9482 32.039C27.7787 32.039 25.3531 31.3672 23.671 30.0229C21.9886 28.6792 21.0825 26.6519 20.9523 23.9423H25.8688Z" fill="#21201F"/>
<mask id="mask0_616_2233" style="mask-type:alpha" maskUnits="userSpaceOnUse" x="0" y="0" width="40" height="33">
<path fill-rule="evenodd" clip-rule="evenodd" d="M0 32.0408H40V0.0739746H0V32.0408Z" fill="white"/>
</mask>
<g mask="url(#mask0_616_2233)">
<path fill-rule="evenodd" clip-rule="evenodd" d="M4.34302 32.0236H17.7003V27.5076H4.34302V32.0236Z" fill="#21201F"/>
</g>
</svg>
